<svg width="1920" height="1080" viewBox="0 0 1920 1080" fill="none" xmlns="http://www.w3.org/2000/svg">
<rect width="1920" height="1080" fill="#F6F6F6"/>
<g clip-path="url(#clip0_567:803)">
<path d="M838.989 611.701H1081.01C1082.44 611.701 1083.75 610.94 1084.47 609.706C1085.18 608.472 1085.18 606.951 1084.47 605.716L1010.97 478.418C1010.26 477.183 1008.94 476.423 1007.51 476.423C1006.09 476.423 1004.77 477.183 1004.06 478.418L965.758 544.757C964.656 546.665 965.31 549.105 967.218 550.207C969.127 551.308 971.566 550.655 972.668 548.747L981.241 533.896L991.401 541.413C992.811 542.456 994.737 542.456 996.147 541.413L1007.51 533.003L1018.88 541.413C1019.59 541.934 1020.42 542.195 1021.25 542.195C1022.09 542.195 1022.92 541.935 1023.63 541.413L1033.79 533.896L1074.1 603.722H845.899L886.213 533.896L896.373 541.412C897.782 542.455 899.709 542.455 901.119 541.412L912.484 533.003L923.852 541.412C924.556 541.933 925.391 542.195 926.224 542.195C927.058 542.195 927.893 541.934 928.597 541.412L938.758 533.895L973.314 593.748C974.415 595.656 976.856 596.31 978.763 595.208C980.671 594.106 981.325 591.666 980.223 589.758L915.94 478.418C915.228 477.183 913.911 476.423 912.486 476.423C911.06 476.423 909.744 477.183 909.031 478.418L835.535 605.716C834.822 606.951 834.822 608.472 835.535 609.706C836.247 610.94 837.564 611.701 838.989 611.701ZM1021.25 533.243L1009.89 524.833C1008.48 523.79 1006.55 523.79 1005.14 524.833L993.774 533.243L985.257 526.941L1007.51 488.39L1029.77 526.941L1021.25 533.243ZM912.486 488.391L934.743 526.941L926.225 533.244L914.857 524.833C913.447 523.79 911.522 523.79 910.112 524.833L898.746 533.243L890.229 526.941L912.486 488.391Z" fill="#757575"/>
<path d="M1065.05 643.615C1067.26 643.615 1069.04 641.829 1069.04 639.626C1069.04 637.423 1067.26 635.637 1065.05 635.637H1030.67C1028.47 635.637 1026.68 637.423 1026.68 639.626C1026.68 641.829 1028.47 643.615 1030.67 643.615H1065.05Z" fill="#757575"/>
<path d="M850.958 639.626C850.958 641.829 852.743 643.615 854.947 643.615H1014.71C1016.92 643.615 1018.7 641.829 1018.7 639.626C1018.7 637.423 1016.92 635.637 1014.71 635.637H854.947C852.743 635.637 850.958 637.423 850.958 639.626Z" fill="#757575"/>
<path d="M1081.01 651.594H1005.5C1003.3 651.594 1001.51 653.38 1001.51 655.583C1001.51 657.787 1003.3 659.573 1005.5 659.573H1081.01C1083.21 659.573 1085 657.787 1085 655.583C1085 653.38 1083.21 651.594 1081.01 651.594Z" fill="#757575"/>
<path d="M989.541 651.594H898.544C896.34 651.594 894.554 653.38 894.554 655.583C894.554 657.787 896.34 659.573 898.544 659.573H989.541C991.745 659.573 993.531 657.787 993.531 655.583C993.531 653.38 991.745 651.594 989.541 651.594Z" fill="#757575"/>
<path d="M882.586 651.594H838.989C836.786 651.594 835 653.38 835 655.583C835 657.787 836.786 659.573 838.989 659.573H882.586C884.79 659.573 886.576 657.787 886.576 655.583C886.576 653.38 884.789 651.594 882.586 651.594Z" fill="#757575"/>
<path d="M1081.01 619.679H880.117C877.914 619.679 876.128 621.465 876.128 623.669C876.128 625.872 877.914 627.658 880.117 627.658H1081.01C1083.21 627.658 1085 625.872 1085 623.669C1085 621.465 1083.21 619.679 1081.01 619.679Z" fill="#757575"/>
<path d="M838.989 627.658H864.16C866.363 627.658 868.149 625.872 868.149 623.669C868.149 621.465 866.363 619.679 864.16 619.679H838.989C836.786 619.679 835 621.465 835 623.669C835 625.872 836.786 627.658 838.989 627.658Z" fill="#757575"/>
<path d="M960 487.87C978.594 487.87 993.721 472.743 993.721 454.149C993.721 435.555 978.594 420.427 960 420.427C941.406 420.427 926.279 435.554 926.279 454.148C926.279 472.743 941.406 487.87 960 487.87ZM960 428.406C974.195 428.406 985.743 439.954 985.743 454.148C985.743 468.343 974.195 479.891 960 479.891C945.805 479.891 934.258 468.344 934.258 454.149C934.258 439.954 945.805 428.406 960 428.406Z" fill="#757575"/>
</g>
<defs>
<clipPath id="clip0_567:803">
<rect width="250" height="250" fill="white" transform="translate(835 415)"/>
</clipPath>
</defs>
</svg>
