<svg viewBox="0 0 315 265" fill="none" xmlns="http://www.w3.org/2000/svg">
<path d="M158 122V247.5M284.481 58.6764L307.885 39.0343C309.422 37.7444 308.889 35.2607 306.959 34.714L199.604 4.31275C198.903 4.11421 198.151 4.23142 197.543 4.63371L166.207 25.383C164.398 26.5807 164.869 29.3561 166.972 29.8904L282.258 59.1845C283.038 59.3826 283.865 59.1935 284.481 58.6764ZM46.6225 62.1757L153.112 31.4122C155.106 30.836 155.57 28.2202 153.895 26.9935L123.428 4.67974C122.839 4.24832 122.091 4.09598 121.38 4.26272L6.57275 31.1928C4.44886 31.691 3.93732 34.4802 5.74619 35.6997L44.5312 61.8469C45.1452 62.2608 45.9111 62.3812 46.6225 62.1757ZM5.25702 87.5086L37.0014 65.2017C37.6316 64.7589 38.4307 64.6312 39.1675 64.8558L149.649 98.5218C151.632 99.1261 152.06 101.743 150.373 102.948L120.487 124.295C119.864 124.74 119.071 124.875 118.335 124.661L5.99555 91.9544C3.98262 91.3684 3.54167 88.714 5.25702 87.5086ZM279.009 63.2845L310.136 87.4946C311.747 88.7474 311.259 91.298 309.3 91.8684L196.782 124.627C195.981 124.86 195.116 124.678 194.477 124.142L165.085 99.5052C163.554 98.2216 164.073 95.7492 165.991 95.1894L276.773 62.858C277.544 62.6332 278.375 62.7918 279.009 63.2845Z" stroke="currentColor" stroke-width="7"/>
<path d="M37.5 118V219.918C37.5 224.401 40.4839 228.336 44.8007 229.547L154.312 260.246C156.07 260.739 157.93 260.741 159.69 260.252L270.179 229.535C274.506 228.332 277.5 224.392 277.5 219.901V118" stroke="currentColor" stroke-width="7"/>
<rect x="192" y="160.617" width="15" height="15" rx="7.5" transform="rotate(-15 192 160.617)" fill="currentColor"/>
<rect x="245.126" y="146.382" width="15" height="15" rx="7.5" transform="rotate(-15 245.126 146.382)" fill="currentColor"/>
<rect x="218" y="189.747" width="28" height="14" rx="7" transform="rotate(-15 218 189.747)" fill="currentColor"/>
</svg>
