<svg width="1829" height="400" viewBox="0 0 1829 400" fill="none" xmlns="http://www.w3.org/2000/svg">
<rect class="selleradise-color-main" width="400" height="400" rx="200" fill="#2940D3"/>
<path d="M174.309 100.275L120.322 154.261C112.539 162.044 112.508 174.653 120.252 182.475L178.967 241.778C184.822 247.691 194.369 247.715 200.252 241.831C206.102 235.982 206.118 226.503 200.288 220.634L162.439 182.533C154.65 174.692 154.697 162.021 162.543 154.238L195.498 121.549C198.376 118.694 199.977 114.796 199.937 110.742C199.805 97.4387 183.716 90.8674 174.309 100.275Z" fill="#FFC947"/>
<path class="selleradise-color-accent-light" d="M225.049 299.647L279.58 245.357C287.407 237.565 287.437 224.905 279.647 217.077L221.236 158.374C215.265 152.373 205.556 152.361 199.57 158.347C193.594 164.322 193.594 174.011 199.57 179.986L236.748 217.165C244.536 224.953 244.562 237.572 236.805 245.392L203.914 278.551C201.14 281.347 199.583 285.127 199.583 289.066C199.583 302.352 215.633 309.021 225.049 299.647Z" fill="#FFC947"/>
<path class="selleradise-color-main-text" d="M174.309 100.275L120.322 154.261C112.539 162.044 112.508 174.653 120.252 182.475L178.967 241.778C184.822 247.691 194.369 247.715 200.252 241.831C206.102 235.982 206.117 226.503 200.288 220.634L162.439 182.533C154.65 174.692 154.697 162.021 162.543 154.238L195.498 121.549C198.376 118.694 199.977 114.796 199.937 110.742C199.805 97.4387 183.716 90.8674 174.309 100.275Z" fill="white"/>
<path class="selleradise-color-text" d="M580.25 243.5C565.417 243.5 552.667 241.25 542 236.75C531.333 232.25 523.25 226.333 517.75 219C512.25 211.667 509.333 203.75 509 195.25C509 193.75 509.5 192.5 510.5 191.5C511.5 190.5 512.75 190 514.25 190H536.5C538.5 190 540 190.417 541 191.25C542.167 191.917 543.25 193.083 544.25 194.75C545.917 200.417 549.75 205.167 555.75 209C561.75 212.833 569.917 214.75 580.25 214.75C592.083 214.75 601 212.833 607 209C613 205 616 199.5 616 192.5C616 187.833 614.417 184 611.25 181C608.25 178 603.667 175.417 597.5 173.25C591.5 171.083 582.5 168.417 570.5 165.25C550.833 160.583 536.417 154.417 527.25 146.75C518.25 138.917 513.75 127.833 513.75 113.5C513.75 103.833 516.333 95.25 521.5 87.75C526.833 80.25 534.417 74.3333 544.25 70C554.25 65.6667 565.833 63.5 579 63.5C592.667 63.5 604.5 65.9167 614.5 70.75C624.5 75.5833 632.083 81.6667 637.25 89C642.583 96.1667 645.417 103.333 645.75 110.5C645.75 112 645.25 113.25 644.25 114.25C643.25 115.25 642 115.75 640.5 115.75H617.25C613.75 115.75 611.333 114.167 610 111C609 105.667 605.667 101.25 600 97.75C594.333 94.0833 587.333 92.25 579 92.25C569.667 92.25 562.333 94 557 97.5C551.667 101 549 106.083 549 112.75C549 117.417 550.333 121.25 553 124.25C555.667 127.25 559.833 129.917 565.5 132.25C571.333 134.583 579.667 137.167 590.5 140C605.167 143.333 616.833 147.083 625.5 151.25C634.333 155.417 640.833 160.667 645 167C649.167 173.333 651.25 181.417 651.25 191.25C651.25 201.917 648.25 211.25 642.25 219.25C636.417 227.083 628.083 233.083 617.25 237.25C606.583 241.417 594.25 243.5 580.25 243.5ZM732.9 243.5C714.4 243.5 699.65 238.167 688.65 227.5C677.817 216.667 672.067 201.5 671.4 182L671.15 175.75L671.4 169.5C672.234 150.5 678.067 135.583 688.9 124.75C699.9 113.917 714.567 108.5 732.9 108.5C752.567 108.5 767.734 114.5 778.4 126.5C789.234 138.5 794.65 154.5 794.65 174.5V179.75C794.65 181.417 794.067 182.833 792.9 184C791.734 185.167 790.234 185.75 788.4 185.75H705.4V187.75C705.734 196.917 708.234 204.667 712.9 211C717.734 217.167 724.317 220.25 732.65 220.25C742.484 220.25 750.4 216.417 756.4 208.75C757.9 206.917 759.067 205.75 759.9 205.25C760.9 204.75 762.317 204.5 764.15 204.5H785.65C787.15 204.5 788.4 205 789.4 206C790.567 206.833 791.15 207.917 791.15 209.25C791.15 213.25 788.734 218 783.9 223.5C779.234 228.833 772.484 233.5 763.65 237.5C754.817 241.5 744.567 243.5 732.9 243.5ZM760.65 164.75V164C760.65 154.167 758.15 146.25 753.15 140.25C748.317 134.25 741.567 131.25 732.9 131.25C724.234 131.25 717.484 134.25 712.65 140.25C707.817 146.25 705.4 154.167 705.4 164V164.75H760.65ZM827.438 241C825.771 241 824.354 240.417 823.188 239.25C822.021 238.083 821.438 236.667 821.438 235V69.5C821.438 67.6667 822.021 66.25 823.188 65.25C824.354 64.0833 825.771 63.5 827.438 63.5H848.188C850.021 63.5 851.438 64.0833 852.438 65.25C853.604 66.25 854.188 67.6667 854.188 69.5V235C854.188 236.667 853.604 238.083 852.438 239.25C851.438 240.417 850.021 241 848.188 241H827.438ZM893.6 241C891.933 241 890.516 240.417 889.35 239.25C888.183 238.083 887.6 236.667 887.6 235V69.5C887.6 67.6667 888.183 66.25 889.35 65.25C890.516 64.0833 891.933 63.5 893.6 63.5H914.35C916.183 63.5 917.6 64.0833 918.6 65.25C919.766 66.25 920.35 67.6667 920.35 69.5V235C920.35 236.667 919.766 238.083 918.6 239.25C917.6 240.417 916.183 241 914.35 241H893.6ZM1009.51 243.5C991.012 243.5 976.262 238.167 965.262 227.5C954.428 216.667 948.678 201.5 948.012 182L947.762 175.75L948.012 169.5C948.845 150.5 954.678 135.583 965.512 124.75C976.512 113.917 991.178 108.5 1009.51 108.5C1029.18 108.5 1044.35 114.5 1055.01 126.5C1065.85 138.5 1071.26 154.5 1071.26 174.5V179.75C1071.26 181.417 1070.68 182.833 1069.51 184C1068.35 185.167 1066.85 185.75 1065.01 185.75H982.012V187.75C982.345 196.917 984.845 204.667 989.512 211C994.345 217.167 1000.93 220.25 1009.26 220.25C1019.1 220.25 1027.01 216.417 1033.01 208.75C1034.51 206.917 1035.68 205.75 1036.51 205.25C1037.51 204.75 1038.93 204.5 1040.76 204.5H1062.26C1063.76 204.5 1065.01 205 1066.01 206C1067.18 206.833 1067.76 207.917 1067.76 209.25C1067.76 213.25 1065.35 218 1060.51 223.5C1055.85 228.833 1049.1 233.5 1040.26 237.5C1031.43 241.5 1021.18 243.5 1009.51 243.5ZM1037.26 164.75V164C1037.26 154.167 1034.76 146.25 1029.76 140.25C1024.93 134.25 1018.18 131.25 1009.51 131.25C1000.85 131.25 994.095 134.25 989.262 140.25C984.428 146.25 982.012 154.167 982.012 164V164.75H1037.26ZM1103.8 241C1102.13 241 1100.72 240.417 1099.55 239.25C1098.38 238.083 1097.8 236.667 1097.8 235V117.25C1097.8 115.583 1098.38 114.167 1099.55 113C1100.72 111.667 1102.13 111 1103.8 111H1124.05C1125.88 111 1127.38 111.583 1128.55 112.75C1129.72 113.917 1130.3 115.417 1130.3 117.25V127.5C1134.3 122.167 1139.3 118.083 1145.3 115.25C1151.47 112.417 1158.47 111 1166.3 111H1176.55C1178.38 111 1179.8 111.583 1180.8 112.75C1181.97 113.75 1182.55 115.167 1182.55 117V135C1182.55 136.667 1181.97 138.083 1180.8 139.25C1179.8 140.417 1178.38 141 1176.55 141H1157.05C1149.22 141 1143.05 143.25 1138.55 147.75C1134.05 152.25 1131.8 158.417 1131.8 166.25V235C1131.8 236.667 1131.22 238.083 1130.05 239.25C1128.88 240.417 1127.38 241 1125.55 241H1103.8ZM1237.84 243.5C1229.34 243.5 1221.51 241.833 1214.34 238.5C1207.34 235 1201.76 230.333 1197.59 224.5C1193.59 218.667 1191.59 212.25 1191.59 205.25C1191.59 193.917 1196.18 184.75 1205.34 177.75C1214.51 170.75 1227.09 166 1243.09 163.5L1277.34 158.5V153.25C1277.34 145.917 1275.51 140.417 1271.84 136.75C1268.18 133.083 1262.26 131.25 1254.09 131.25C1248.59 131.25 1244.09 132.333 1240.59 134.5C1237.26 136.5 1234.59 138.5 1232.59 140.5C1230.59 142.667 1229.26 144.083 1228.59 144.75C1227.93 146.75 1226.68 147.75 1224.84 147.75H1205.59C1204.09 147.75 1202.76 147.25 1201.59 146.25C1200.59 145.25 1200.09 143.917 1200.09 142.25C1200.26 138.083 1202.26 133.333 1206.09 128C1210.09 122.667 1216.18 118.083 1224.34 114.25C1232.51 110.417 1242.51 108.5 1254.34 108.5C1274.01 108.5 1288.34 112.917 1297.34 121.75C1306.34 130.583 1310.84 142.167 1310.84 156.5V235C1310.84 236.667 1310.26 238.083 1309.09 239.25C1308.09 240.417 1306.68 241 1304.84 241H1284.59C1282.93 241 1281.51 240.417 1280.34 239.25C1279.18 238.083 1278.59 236.667 1278.59 235V225.25C1274.93 230.583 1269.68 235 1262.84 238.5C1256.18 241.833 1247.84 243.5 1237.84 243.5ZM1246.34 219.75C1255.51 219.75 1263.01 216.75 1268.84 210.75C1274.68 204.75 1277.59 196 1277.59 184.5V179.25L1252.59 183.25C1242.93 184.75 1235.59 187.167 1230.59 190.5C1225.76 193.833 1223.34 197.917 1223.34 202.75C1223.34 208.083 1225.59 212.25 1230.09 215.25C1234.59 218.25 1240.01 219.75 1246.34 219.75ZM1391.17 243.5C1374.33 243.5 1361.42 238.083 1352.42 227.25C1343.42 216.417 1338.58 202 1337.92 184L1337.67 175.75L1337.92 167.75C1338.42 150.25 1343.17 136 1352.17 125C1361.33 114 1374.33 108.5 1391.17 108.5C1407.33 108.5 1420.17 114 1429.67 125V69.5C1429.67 67.6667 1430.25 66.25 1431.42 65.25C1432.58 64.0833 1434 63.5 1435.67 63.5H1456.92C1458.75 63.5 1460.17 64.0833 1461.17 65.25C1462.33 66.25 1462.92 67.6667 1462.92 69.5V235C1462.92 236.667 1462.33 238.083 1461.17 239.25C1460.17 240.417 1458.75 241 1456.92 241H1437.17C1435.5 241 1434.08 240.417 1432.92 239.25C1431.75 238.083 1431.17 236.667 1431.17 235V225.75C1421.67 237.583 1408.33 243.5 1391.17 243.5ZM1400.42 216.75C1410.08 216.75 1417.25 213.667 1421.92 207.5C1426.58 201.333 1429.17 193.75 1429.67 184.75C1429.83 182.75 1429.92 179.5 1429.92 175C1429.92 170.667 1429.83 167.5 1429.67 165.5C1429.33 157.167 1426.67 150.083 1421.67 144.25C1416.83 138.25 1409.75 135.25 1400.42 135.25C1382.42 135.25 1372.83 146.333 1371.67 168.5L1371.42 176L1371.67 183.5C1372.83 205.667 1382.42 216.75 1400.42 216.75ZM1501.24 89.5C1499.57 89.5 1498.15 88.9167 1496.99 87.75C1495.82 86.5833 1495.24 85.1667 1495.24 83.5V65.5C1495.24 63.8333 1495.82 62.4167 1496.99 61.25C1498.15 60.0833 1499.57 59.5 1501.24 59.5H1523.99C1525.65 59.5 1527.07 60.0833 1528.24 61.25C1529.57 62.4167 1530.24 63.8333 1530.24 65.5V83.5C1530.24 85.1667 1529.65 86.5833 1528.49 87.75C1527.32 88.9167 1525.82 89.5 1523.99 89.5H1501.24ZM1502.24 241C1500.57 241 1499.15 240.417 1497.99 239.25C1496.82 238.083 1496.24 236.667 1496.24 235V117C1496.24 115.333 1496.82 113.917 1497.99 112.75C1499.15 111.583 1500.57 111 1502.24 111H1522.99C1524.82 111 1526.24 111.583 1527.24 112.75C1528.4 113.75 1528.99 115.167 1528.99 117V235C1528.99 236.667 1528.4 238.083 1527.24 239.25C1526.24 240.417 1524.82 241 1522.99 241H1502.24ZM1611.4 243.5C1598.9 243.5 1588.4 241.667 1579.9 238C1571.4 234.167 1565.07 229.75 1560.9 224.75C1556.9 219.583 1554.9 215.167 1554.9 211.5C1554.9 209.833 1555.49 208.5 1556.65 207.5C1557.82 206.5 1559.15 206 1560.65 206H1580.4C1581.9 206 1583.15 206.583 1584.15 207.75C1584.82 208.25 1586.57 209.75 1589.4 212.25C1592.24 214.917 1595.57 217 1599.4 218.5C1603.24 220 1607.49 220.75 1612.15 220.75C1618.82 220.75 1624.32 219.417 1628.65 216.75C1632.99 214.083 1635.15 210.417 1635.15 205.75C1635.15 202.25 1634.15 199.417 1632.15 197.25C1630.32 195.083 1626.9 193.167 1621.9 191.5C1616.9 189.667 1609.49 187.75 1599.65 185.75C1585.49 182.75 1574.99 178.167 1568.15 172C1561.49 165.833 1558.15 157.667 1558.15 147.5C1558.15 140.833 1560.15 134.583 1564.15 128.75C1568.15 122.75 1574.07 117.917 1581.9 114.25C1589.9 110.417 1599.4 108.5 1610.4 108.5C1621.57 108.5 1631.24 110.333 1639.4 114C1647.57 117.5 1653.74 121.75 1657.9 126.75C1662.24 131.583 1664.4 135.917 1664.4 139.75C1664.4 141.25 1663.82 142.583 1662.65 143.75C1661.65 144.75 1660.4 145.25 1658.9 145.25H1640.4C1639.07 145.25 1637.65 144.667 1636.15 143.5C1634.99 142.667 1633.15 141.083 1630.65 138.75C1628.15 136.417 1625.24 134.583 1621.9 133.25C1618.57 131.917 1614.65 131.25 1610.15 131.25C1603.99 131.25 1599.15 132.583 1595.65 135.25C1592.32 137.917 1590.65 141.417 1590.65 145.75C1590.65 148.917 1591.49 151.5 1593.15 153.5C1594.82 155.5 1598.07 157.417 1602.9 159.25C1607.74 161.083 1614.99 162.917 1624.65 164.75C1640.65 167.917 1652.07 172.833 1658.9 179.5C1665.9 186.167 1669.4 194.333 1669.4 204C1669.4 215.667 1664.32 225.167 1654.15 232.5C1643.99 239.833 1629.74 243.5 1611.4 243.5ZM1751.21 243.5C1732.71 243.5 1717.96 238.167 1706.96 227.5C1696.13 216.667 1690.38 201.5 1689.71 182L1689.46 175.75L1689.71 169.5C1690.54 150.5 1696.38 135.583 1707.21 124.75C1718.21 113.917 1732.88 108.5 1751.21 108.5C1770.88 108.5 1786.04 114.5 1796.71 126.5C1807.54 138.5 1812.96 154.5 1812.96 174.5V179.75C1812.96 181.417 1812.38 182.833 1811.21 184C1810.04 185.167 1808.54 185.75 1806.71 185.75H1723.71V187.75C1724.04 196.917 1726.54 204.667 1731.21 211C1736.04 217.167 1742.63 220.25 1750.96 220.25C1760.79 220.25 1768.71 216.417 1774.71 208.75C1776.21 206.917 1777.38 205.75 1778.21 205.25C1779.21 204.75 1780.63 204.5 1782.46 204.5H1803.96C1805.46 204.5 1806.71 205 1807.71 206C1808.88 206.833 1809.46 207.917 1809.46 209.25C1809.46 213.25 1807.04 218 1802.21 223.5C1797.54 228.833 1790.79 233.5 1781.96 237.5C1773.13 241.5 1762.88 243.5 1751.21 243.5ZM1778.96 164.75V164C1778.96 154.167 1776.46 146.25 1771.46 140.25C1766.63 134.25 1759.88 131.25 1751.21 131.25C1742.54 131.25 1735.79 134.25 1730.96 140.25C1726.13 146.25 1723.71 154.167 1723.71 164V164.75H1778.96Z" fill="#283144"/>
<path class="selleradise-color-text" d="M516.247 376L501.463 325.18H512.782L522.792 367.145L532.956 325.18H543.12L553.438 367.145L563.371 325.18H574.228L559.444 376H547.509L540.425 348.28L538.038 336.268H537.884L535.497 348.28L528.49 376H516.247ZM603.386 324.41C608.417 324.41 612.755 325.462 616.399 327.567C620.044 329.672 622.842 332.675 624.792 336.576C626.794 340.477 627.795 345.149 627.795 350.59C627.795 356.031 626.794 360.703 624.792 364.604C622.842 368.505 620.044 371.508 616.399 373.613C612.755 375.718 608.417 376.77 603.386 376.77C598.356 376.77 593.992 375.718 590.296 373.613C586.652 371.508 583.828 368.505 581.826 364.604C579.876 360.703 578.9 356.031 578.9 350.59C578.9 345.149 579.876 340.477 581.826 336.576C583.828 332.675 586.652 329.672 590.296 327.567C593.992 325.462 598.356 324.41 603.386 324.41ZM603.386 333.111C599.074 333.111 595.738 334.625 593.376 337.654C591.066 340.631 589.911 344.943 589.911 350.59C589.911 356.237 591.066 360.574 593.376 363.603C595.738 366.58 599.074 368.069 603.386 368.069C607.647 368.069 610.932 366.58 613.242 363.603C615.604 360.574 616.784 356.237 616.784 350.59C616.784 344.943 615.604 340.631 613.242 337.654C610.932 334.625 607.647 333.111 603.386 333.111ZM660.922 325.18C666.62 325.18 671.111 326.566 674.397 329.338C677.733 332.11 679.402 335.832 679.402 340.503C679.402 344.25 678.452 347.356 676.553 349.82C674.705 352.233 672.087 353.927 668.699 354.902L682.405 376H670.47L658.535 356.519H648.987V376H638.515V325.18H660.922ZM659.69 348.434C665.593 348.434 668.545 345.97 668.545 341.042C668.545 336.114 665.593 333.65 659.69 333.65H648.987V348.434H659.69ZM710.486 325.18C718.442 325.18 724.602 327.387 728.966 331.802C733.329 336.217 735.511 342.479 735.511 350.59C735.511 358.701 733.329 364.963 728.966 369.378C724.602 373.793 718.442 376 710.486 376H690.851V325.18H710.486ZM709.947 367.53C714.772 367.53 718.391 366.093 720.804 363.218C723.268 360.292 724.5 356.083 724.5 350.59C724.5 345.097 723.268 340.914 720.804 338.039C718.391 335.113 714.772 333.65 709.947 333.65H701.477V367.53H709.947ZM767.523 325.18C773.324 325.18 777.893 326.643 781.229 329.569C784.566 332.444 786.234 336.448 786.234 341.581C786.234 346.766 784.566 350.795 781.229 353.67C777.893 356.545 773.324 357.982 767.523 357.982H756.82V376H746.194V325.18H767.523ZM765.906 349.589C772.272 349.589 775.454 346.92 775.454 341.581C775.454 336.242 772.272 333.573 765.906 333.573H756.82V349.589H765.906ZM818.381 325.18C824.079 325.18 828.57 326.566 831.856 329.338C835.192 332.11 836.861 335.832 836.861 340.503C836.861 344.25 835.911 347.356 834.012 349.82C832.164 352.233 829.546 353.927 826.158 354.902L839.864 376H827.929L815.994 356.519H806.446V376H795.974V325.18H818.381ZM817.149 348.434C823.052 348.434 826.004 345.97 826.004 341.042C826.004 336.114 823.052 333.65 817.149 333.65H806.446V348.434H817.149ZM848.31 376V325.18H886.425V333.727H858.936V346.355H880.572V354.517H858.936V367.453H887.503V376H848.31ZM915.593 324.41C920.213 324.41 924.268 325.206 927.759 326.797C931.25 328.388 934.227 330.75 936.691 333.881L930.762 340.734C928.657 338.065 926.347 336.114 923.832 334.882C921.368 333.599 918.493 332.957 915.208 332.957C911.923 332.957 909.536 333.573 908.047 334.805C906.558 335.986 905.814 337.423 905.814 339.117C905.814 340.503 906.327 341.684 907.354 342.659C908.432 343.583 910.306 344.353 912.975 344.969L922.446 347.125C927.425 348.254 931.019 349.948 933.226 352.207C935.433 354.414 936.537 357.289 936.537 360.831C936.537 364.168 935.664 367.042 933.919 369.455C932.174 371.816 929.735 373.639 926.604 374.922C923.473 376.154 919.879 376.77 915.824 376.77C910.537 376.77 905.891 375.846 901.887 373.998C897.883 372.15 894.726 369.763 892.416 366.837L898.422 359.676C900.167 362.14 902.554 364.193 905.583 365.836C908.663 367.427 912.077 368.223 915.824 368.223C918.955 368.223 921.368 367.71 923.062 366.683C924.756 365.605 925.603 364.091 925.603 362.14C925.603 360.857 925.141 359.727 924.217 358.752C923.344 357.777 921.702 357.032 919.289 356.519L908.971 354.209C904.454 353.234 900.963 351.642 898.499 349.435C896.035 347.228 894.803 344.225 894.803 340.426C894.803 337.397 895.624 334.677 897.267 332.264C898.91 329.851 901.271 327.952 904.351 326.566C907.482 325.129 911.23 324.41 915.593 324.41ZM965.147 324.41C969.767 324.41 973.822 325.206 977.313 326.797C980.803 328.388 983.781 330.75 986.245 333.881L980.316 340.734C978.211 338.065 975.901 336.114 973.386 334.882C970.922 333.599 968.047 332.957 964.762 332.957C961.476 332.957 959.089 333.573 957.601 334.805C956.112 335.986 955.368 337.423 955.368 339.117C955.368 340.503 955.881 341.684 956.908 342.659C957.986 343.583 959.859 344.353 962.529 344.969L972 347.125C976.979 348.254 980.572 349.948 982.78 352.207C984.987 354.414 986.091 357.289 986.091 360.831C986.091 364.168 985.218 367.042 983.473 369.455C981.727 371.816 979.289 373.639 976.158 374.922C973.026 376.154 969.433 376.77 965.378 376.77C960.09 376.77 955.445 375.846 951.441 373.998C947.437 372.15 944.28 369.763 941.97 366.837L947.976 359.676C949.721 362.14 952.108 364.193 955.137 365.836C958.217 367.427 961.63 368.223 965.378 368.223C968.509 368.223 970.922 367.71 972.616 366.683C974.31 365.605 975.157 364.091 975.157 362.14C975.157 360.857 974.695 359.727 973.771 358.752C972.898 357.777 971.255 357.032 968.843 356.519L958.525 354.209C954.007 353.234 950.517 351.642 948.053 349.435C945.589 347.228 944.357 344.225 944.357 340.426C944.357 337.397 945.178 334.677 946.821 332.264C948.463 329.851 950.825 327.952 953.905 326.566C957.036 325.129 960.783 324.41 965.147 324.41ZM1019.68 376V325.18H1057.79V333.727H1030.31V346.355H1051.94V354.517H1030.31V367.453H1058.87V376H1019.68ZM1111.23 361.986C1109.69 366.965 1107 370.687 1103.15 373.151C1099.3 375.564 1094.81 376.77 1089.67 376.77C1084.64 376.77 1080.28 375.718 1076.58 373.613C1072.94 371.508 1070.12 368.505 1068.11 364.604C1066.16 360.703 1065.19 356.031 1065.19 350.59C1065.19 345.149 1066.19 340.477 1068.19 336.576C1070.19 332.675 1073.02 329.672 1076.66 327.567C1080.31 325.462 1084.59 324.41 1089.52 324.41C1094.71 324.41 1099.15 325.514 1102.84 327.721C1106.59 329.877 1109.16 333.162 1110.54 337.577L1100.92 341.658C1100.04 338.578 1098.71 336.396 1096.91 335.113C1095.12 333.778 1092.81 333.111 1089.98 333.111C1085.77 333.111 1082.41 334.625 1079.9 337.654C1077.43 340.631 1076.2 344.943 1076.2 350.59C1076.2 356.185 1077.38 360.497 1079.74 363.526C1082.1 366.555 1085.52 368.069 1089.98 368.069C1092.75 368.069 1095.14 367.325 1097.14 365.836C1099.2 364.347 1100.63 362.089 1101.46 359.06L1111.23 361.986ZM1142.24 324.41C1147.27 324.41 1151.6 325.462 1155.25 327.567C1158.89 329.672 1161.69 332.675 1163.64 336.576C1165.64 340.477 1166.64 345.149 1166.64 350.59C1166.64 356.031 1165.64 360.703 1163.64 364.604C1161.69 368.505 1158.89 371.508 1155.25 373.613C1151.6 375.718 1147.27 376.77 1142.24 376.77C1137.21 376.77 1132.84 375.718 1129.15 373.613C1125.5 371.508 1122.68 368.505 1120.68 364.604C1118.73 360.703 1117.75 356.031 1117.75 350.59C1117.75 345.149 1118.73 340.477 1120.68 336.576C1122.68 332.675 1125.5 329.672 1129.15 327.567C1132.84 325.462 1137.21 324.41 1142.24 324.41ZM1142.24 333.111C1137.92 333.111 1134.59 334.625 1132.23 337.654C1129.92 340.631 1128.76 344.943 1128.76 350.59C1128.76 356.237 1129.92 360.574 1132.23 363.603C1134.59 366.58 1137.92 368.069 1142.24 368.069C1146.5 368.069 1149.78 366.58 1152.09 363.603C1154.45 360.574 1155.63 356.237 1155.63 350.59C1155.63 344.943 1154.45 340.631 1152.09 337.654C1149.78 334.625 1146.5 333.111 1142.24 333.111ZM1232.65 325.18V376H1223.1V349.512L1223.56 334.651H1223.41L1209.32 376H1200.62L1186.6 334.651H1186.45L1186.99 349.512V376H1177.36V325.18H1192.76L1201.93 352.9L1205.16 364.373H1205.32L1208.63 352.977L1217.71 325.18H1232.65ZM1301.15 325.18V376H1291.61V349.512L1292.07 334.651H1291.91L1277.82 376H1269.12L1255.11 334.651H1254.95L1255.49 349.512V376H1245.87V325.18H1261.27L1270.43 352.9L1273.66 364.373H1273.82L1277.13 352.977L1286.22 325.18H1301.15ZM1314.37 376V325.18H1352.49V333.727H1325V346.355H1346.63V354.517H1325V367.453H1353.56V376H1314.37ZM1385.5 325.18C1391.2 325.18 1395.69 326.566 1398.98 329.338C1402.32 332.11 1403.98 335.832 1403.98 340.503C1403.98 344.25 1403.03 347.356 1401.13 349.82C1399.29 352.233 1396.67 353.927 1393.28 354.902L1406.99 376H1395.05L1383.12 356.519H1373.57V376H1363.1V325.18H1385.5ZM1384.27 348.434C1390.17 348.434 1393.13 345.97 1393.13 341.042C1393.13 336.114 1390.17 333.65 1384.27 333.65H1373.57V348.434H1384.27ZM1458.49 361.986C1456.95 366.965 1454.25 370.687 1450.4 373.151C1446.55 375.564 1442.06 376.77 1436.93 376.77C1431.9 376.77 1427.53 375.718 1423.84 373.613C1420.19 371.508 1417.37 368.505 1415.37 364.604C1413.42 360.703 1412.44 356.031 1412.44 350.59C1412.44 345.149 1413.44 340.477 1415.44 336.576C1417.45 332.675 1420.27 329.672 1423.91 327.567C1427.56 325.462 1431.84 324.41 1436.77 324.41C1441.96 324.41 1446.4 325.514 1450.09 327.721C1453.84 329.877 1456.41 333.162 1457.79 337.577L1448.17 341.658C1447.3 338.578 1445.96 336.396 1444.16 335.113C1442.37 333.778 1440.06 333.111 1437.23 333.111C1433.03 333.111 1429.66 334.625 1427.15 337.654C1424.68 340.631 1423.45 344.943 1423.45 350.59C1423.45 356.185 1424.63 360.497 1426.99 363.526C1429.35 366.555 1432.77 368.069 1437.23 368.069C1440.01 368.069 1442.39 367.325 1444.4 365.836C1446.45 364.347 1447.89 362.089 1448.71 359.06L1458.49 361.986ZM1467.54 376V325.18H1505.66V333.727H1478.17V346.355H1499.81V354.517H1478.17V367.453H1506.74V376H1467.54ZM1578.35 325.18V333.727H1561.33V376H1550.7V333.727H1533.61V325.18H1578.35ZM1597.65 325.18V346.047H1620.06V325.18H1630.69V376H1620.06V354.594H1597.65V376H1587.03V325.18H1597.65ZM1643.95 376V325.18H1682.07V333.727H1654.58V346.355H1676.21V354.517H1654.58V367.453H1683.14V376H1643.95ZM1747.96 325.18V376H1738.42V349.512L1738.88 334.651H1738.72L1724.63 376H1715.93L1701.92 334.651H1701.76L1702.3 349.512V376H1692.68V325.18H1708.08L1717.24 352.9L1720.47 364.373H1720.63L1723.94 352.977L1733.03 325.18H1747.96ZM1761.18 376V325.18H1799.3V333.727H1771.81V346.355H1793.44V354.517H1771.81V367.453H1800.37V376H1761.18Z" fill="#283144"/>
</svg>
